<svg width="80" height="80" viewBox="0 0 80 80" fill="none" xmlns="http://www.w3.org/2000/svg">
<path d="M39.295 66.5709C39.6239 66.5709 39.9583 66.494 40.2983 66.3401C40.6378 66.1862 40.9058 66.0109 41.1025 65.8143L67.7625 39.1543C68.5147 38.402 69.0811 37.5984 69.4616 36.7434C69.8416 35.889 70.0316 34.9918 70.0316 34.0518C70.0316 33.0773 69.8416 32.1393 69.4616 31.2376C69.0811 30.3354 68.5147 29.5254 67.7625 28.8076L54.4291 15.4743C53.7114 14.722 52.9336 14.1718 52.0958 13.8234C51.2586 13.4756 50.3528 13.3018 49.3783 13.3018C48.4383 13.3018 47.5355 13.4756 46.67 13.8234C45.8044 14.1718 45.0064 14.722 44.2758 15.4743L42.365 17.3851L48.5316 23.6026C49.2794 24.3165 49.8319 25.1306 50.1891 26.0451C50.5458 26.9595 50.7241 27.9081 50.7241 28.8909C50.7241 30.9254 50.0447 32.622 48.6858 33.9809C47.3269 35.3398 45.6303 36.0193 43.5958 36.0193C42.613 36.0193 41.6611 35.8568 40.74 35.5318C39.8194 35.2073 39.0022 34.6881 38.2883 33.9743L31.9741 27.7118L17.4875 42.1984C17.2353 42.4506 17.0461 42.7329 16.92 43.0451C16.7939 43.3568 16.7308 43.6773 16.7308 44.0068C16.7308 44.6218 16.9403 45.1473 17.3591 45.5834C17.778 46.0195 18.295 46.2376 18.91 46.2376C19.2394 46.2376 19.5739 46.1606 19.9133 46.0068C20.2533 45.8529 20.5216 45.6776 20.7183 45.4809L31.6666 34.5326L35.1791 38.0451L24.2816 48.9934C24.03 49.2456 23.8411 49.5279 23.715 49.8401C23.5889 50.1518 23.5258 50.4723 23.5258 50.8018C23.5258 51.3956 23.7405 51.9073 24.17 52.3368C24.5994 52.7662 25.1111 52.9809 25.705 52.9809C26.0344 52.9809 26.3689 52.904 26.7083 52.7501C27.0483 52.5962 27.3164 52.4209 27.5125 52.2243L38.8458 40.9426L42.3591 44.4551L31.0766 55.7884C30.8461 55.9851 30.6625 56.2531 30.5258 56.5926C30.3891 56.9326 30.3208 57.267 30.3208 57.5959C30.3208 58.1904 30.5355 58.7023 30.965 59.1318C31.3944 59.5612 31.9061 59.7759 32.5 59.7759C32.8289 59.7759 33.1494 59.7129 33.4616 59.5868C33.7733 59.4606 34.0553 59.2715 34.3075 59.0193L45.6408 47.7376L49.1541 51.2501L37.8208 62.5834C37.5686 62.8356 37.3794 63.1284 37.2533 63.4618C37.1272 63.7951 37.0641 64.1157 37.0641 64.4234C37.0641 65.0384 37.2928 65.5501 37.75 65.9584C38.2072 66.3668 38.7222 66.5709 39.295 66.5709ZM39.2433 71.5701C37.3589 71.5701 35.7158 70.9165 34.3141 69.6093C32.9125 68.3015 32.1797 66.6731 32.1158 64.7243C30.2269 64.5959 28.6489 63.9251 27.3816 62.7118C26.1144 61.4979 25.4275 59.9037 25.3208 57.9293C23.3464 57.8015 21.7503 57.1115 20.5325 55.8593C19.3141 54.607 18.6622 53.032 18.5766 51.1343C16.5939 51.0065 14.9572 50.2876 13.6666 48.9776C12.3761 47.6676 11.7308 46.0106 11.7308 44.0068C11.7308 43.024 11.9178 42.0612 12.2916 41.1184C12.6655 40.1762 13.2094 39.3484 13.9233 38.6351L31.9741 20.6351L41.7375 30.3976C41.9336 30.6281 42.1908 30.812 42.5091 30.9493C42.828 31.0859 43.1733 31.1543 43.545 31.1543C44.1516 31.1543 44.675 30.9534 45.115 30.5518C45.5555 30.1501 45.7758 29.6243 45.7758 28.9743C45.7758 28.6026 45.7075 28.2576 45.5708 27.9393C45.4336 27.6209 45.2497 27.3634 45.0191 27.1668L33.3266 15.4743C32.6089 14.722 31.8258 14.1718 30.9775 13.8234C30.1291 13.4756 29.2178 13.3018 28.2433 13.3018C27.3033 13.3018 26.4114 13.4756 25.5675 13.8234C24.723 14.1718 23.925 14.722 23.1733 15.4743L12.2241 26.4743C11.6175 27.0809 11.1208 27.7979 10.7341 28.6251C10.3475 29.4518 10.12 30.2948 10.0516 31.1543C9.98276 31.8637 10.0147 32.5656 10.1475 33.2601C10.2797 33.9545 10.5125 34.6073 10.8458 35.2184L7.16665 38.8976C6.41442 37.812 5.84831 36.5962 5.46831 35.2501C5.08776 33.904 4.93164 32.5387 4.99998 31.1543C5.06831 29.6198 5.41442 28.1379 6.03831 26.7084C6.6622 25.279 7.53609 24.0023 8.65998 22.8784L19.5766 11.9618C20.825 10.7479 22.183 9.83453 23.6508 9.22176C25.1186 8.60842 26.6603 8.30176 28.2758 8.30176C29.8908 8.30176 31.4269 8.60842 32.8841 9.22176C34.3419 9.83453 35.6775 10.7479 36.8908 11.9618L38.8016 13.8718L40.7116 11.9618C41.9594 10.7479 43.3119 9.83453 44.7691 9.22176C46.2264 8.60842 47.7628 8.30176 49.3783 8.30176C50.9939 8.30176 52.5355 8.60842 54.0033 9.22176C55.4711 9.83453 56.8119 10.7479 58.0258 11.9618L71.2758 25.2118C72.4891 26.4256 73.4186 27.807 74.0642 29.3559C74.7092 30.9048 75.0316 32.487 75.0316 34.1026C75.0316 35.7181 74.7092 37.2545 74.0642 38.7118C73.4186 40.169 72.4891 41.5043 71.2758 42.7176L44.615 69.3268C43.88 70.0618 43.0522 70.6195 42.1316 71.0001C41.2105 71.3801 40.2478 71.5701 39.2433 71.5701Z" fill="#FFED00"/>
</svg>
