<svg width="180" height="32" viewBox="0 0 180 32" fill="none" xmlns="http://www.w3.org/2000/svg">
<g clip-path="url(#clip0_28_923)">
<path d="M55.7066 2.00613V31.0948H26.6145L55.7066 2.00613Z" fill="#FEFEFF"/>
<path d="M86.0308 2.00613V31.0948H56.9386L86.0308 2.00613Z" fill="#FEFEFF"/>
<path d="M16.0017 32.0034C24.8392 32.0034 32.0034 24.8392 32.0034 16.0017C32.0034 7.16421 24.8392 0 16.0017 0C7.16422 0 0 7.16421 0 16.0017C0 24.8392 7.16422 32.0034 16.0017 32.0034Z" fill="#FEFEFF"/>
<path d="M102.005 8.74059C102.005 5.20989 99.8232 2.83888 96.5781 2.83888C93.3331 2.83888 91.1341 5.20989 91.1341 8.74059C91.1341 12.2713 93.3193 14.6251 96.5781 14.6251C99.837 14.6251 102.005 12.261 102.005 8.74059ZM96.5953 13.0318C94.5306 13.0318 93.1988 11.349 93.1988 8.74059C93.1988 6.13214 94.5306 4.43217 96.5953 4.43217C98.6601 4.43217 99.9402 6.08396 99.9402 8.74059C99.9402 11.3972 98.6566 13.0318 96.5953 13.0318Z" fill="#FEFEFF"/>
<path d="M111.389 10.9636C111.169 12.199 110.123 13.0284 108.736 13.0284C106.723 13.0284 105.37 11.3078 105.37 8.77157C105.37 6.13559 106.654 4.49757 108.719 4.49757C110.078 4.49757 111.038 5.21679 111.317 6.43498H113.327C112.982 4.21883 111.262 2.85266 108.719 2.85266C105.532 2.85266 103.306 5.2856 103.306 8.77157C103.306 12.1612 105.591 14.6217 108.736 14.6217C110.178 14.6217 111.296 14.2328 112.15 13.431C112.836 12.7853 113.269 11.9147 113.368 10.9774L111.389 10.9636Z" fill="#FEFEFF"/>
<path d="M117.184 9.24995H122.621V7.65666H117.184V4.70752H123.385V3.06606H115.168V14.3636H123.433V12.7394H117.184V9.24995Z" fill="#FEFEFF"/>
<path d="M131.964 11.8893L132.745 14.3635H134.838L130.856 3.06942H128.657L124.721 14.3635H126.747L127.511 11.8893H131.964ZM129.077 6.84788C129.27 6.24222 129.559 5.07909 129.562 5.06877L129.628 4.938H129.9L129.931 5.0722C129.931 5.0722 130.206 6.24223 130.399 6.85132L131.51 10.4268H127.966L129.077 6.84788Z" fill="#FEFEFF"/>
<path d="M143.338 9.00209C143.338 9.80046 143.399 10.998 143.403 11.0118L143.379 11.1907H143.086L143.042 11.0909C143.042 11.0909 142.601 10.0998 142.236 9.48042L138.41 3.06942H136.304V14.3635H138.289V8.53065C138.289 7.72884 138.224 6.51408 138.224 6.50376L138.245 6.32137H138.537L138.585 6.42117C138.585 6.42117 139.039 7.41225 139.404 8.01446L143.327 14.3635H145.337V3.06942H143.355L143.338 9.00209Z" fill="#FEFEFF"/>
<path d="M156.373 11.1185C156.373 8.78534 154.628 8.22442 152.161 7.67726C150.499 7.33314 149.487 7.01655 149.487 5.91535C149.487 4.97934 150.378 4.37368 151.758 4.37368C153.08 4.37368 153.964 5.02752 154.167 6.13215H156.091C155.85 4.03988 154.291 2.84577 151.786 2.84577C149.102 2.84577 147.498 4.08461 147.498 6.15968C147.498 8.39303 149.167 8.94708 151.352 9.44261L151.469 9.47014C153.214 9.86932 154.367 10.1343 154.367 11.3835C154.367 12.4158 153.458 13.0559 151.934 13.0559C150.213 13.0559 149.37 12.4675 149.16 11.1013H147.181C147.316 13.3794 149.036 14.6251 152.02 14.6251C154.704 14.6251 156.373 13.283 156.373 11.1185Z" fill="#FEFEFF"/>
<path d="M98.4502 26.4457L99.2313 28.9199H101.32L97.3386 17.6224H95.1397L91.2064 28.9199H93.2298L93.9938 26.4457H98.4502ZM95.5526 21.4043C95.7454 20.7952 96.0378 19.6355 96.0378 19.6217L96.1032 19.491H96.3854L96.4164 19.6252C96.4164 19.6252 96.6951 20.7986 96.8844 21.4043L97.9959 24.9797H94.4514L95.5526 21.4043Z" fill="#FEFEFF"/>
<path d="M112.077 23.3933C112.077 19.9521 110.092 17.6224 107.139 17.6224H102.765V28.9199H106.943C108.151 28.9731 109.338 28.5881 110.285 27.836C111.441 26.8655 112.077 25.2929 112.077 23.3933ZM106.778 27.2269H104.785V19.312H106.85C108.846 19.312 110.037 20.8399 110.037 23.4071C110.037 25.9743 108.967 27.2269 106.778 27.2269Z" fill="#FEFEFF"/>
<path d="M122.195 26.4457L122.976 28.9199H125.065L121.083 17.6224H118.891L114.968 28.9199H116.992L117.759 26.4457H122.195ZM119.304 21.4043C119.497 20.7952 119.789 19.6355 119.789 19.6217L119.855 19.491H120.13L120.161 19.6252C120.161 19.6252 120.44 20.7986 120.629 21.4043L121.74 24.9797H118.196L119.304 21.4043Z" fill="#FEFEFF"/>
<path d="M131.396 24.5565H134.198V24.7939C134.198 26.1429 132.986 27.602 131.028 27.602C128.964 27.602 127.587 25.8814 127.587 23.3108C127.587 20.6541 128.912 19.0024 131.049 19.0024C132.463 19.0024 133.458 19.6906 133.802 20.9398H135.774C135.32 18.6823 133.592 17.3953 130.997 17.3953C129.668 17.3446 128.37 17.8052 127.37 18.6823C126.18 19.7801 125.522 21.4353 125.522 23.3108C125.477 24.8525 126.008 26.3556 127.012 27.5263C127.516 28.0667 128.13 28.4925 128.813 28.7751C129.496 29.0577 130.231 29.1904 130.97 29.1643C132.419 29.1643 133.379 28.6309 134.094 27.4437L134.177 27.3611H134.439L134.521 28.9234H135.96V23.0733H131.396V24.5565Z" fill="#FEFEFF"/>
<path d="M140.247 23.8064H145.684V22.2131H140.247V19.2639H146.448V17.619H138.231V28.9166H146.497V27.2923H140.247V23.8064Z" fill="#FEFEFF"/>
<path d="M155.54 23.5723C155.54 24.3741 155.606 25.5716 155.606 25.582L155.581 25.7643H155.289L155.23 25.637C155.23 25.637 154.79 24.6459 154.425 24.0265L150.599 17.6155H148.475V28.9131H150.461V23.063C150.461 22.2612 150.396 21.0498 150.396 21.0361L150.42 20.8537H150.709L150.757 20.9569C150.757 20.9569 151.211 21.948 151.576 22.5502L155.499 28.8993H157.512V17.6224H155.54V23.5723Z" fill="#FEFEFF"/>
<path d="M169.432 25.52H167.454C167.233 26.7519 166.187 27.5847 164.801 27.5847C162.787 27.5847 161.435 25.8641 161.435 23.3245C161.435 20.6885 162.719 19.0504 164.783 19.0504C166.16 19.0504 167.103 19.7697 167.381 20.9879H169.391C169.047 18.7752 167.326 17.409 164.783 17.409C161.597 17.409 159.37 19.8419 159.37 23.3245C159.37 26.7141 161.655 29.1746 164.801 29.1746C166.242 29.1746 167.361 28.7857 168.214 27.9839C168.904 27.336 169.336 26.4611 169.432 25.52Z" fill="#FEFEFF"/>
<path d="M177.327 17.6224L175.651 20.9776C175.307 21.6658 174.873 22.6259 174.87 22.6328L174.79 22.7326H174.567L174.522 22.6294C174.522 22.6294 174.112 21.6658 173.761 20.9776L172.041 17.6224H169.863L173.62 24.553V28.9199H175.637V24.553L179.395 17.6224H177.327Z" fill="#FEFEFF"/>
</g>
<defs>
<clipPath id="clip0_28_923">
<rect width="179.409" height="32" fill="white"/>
</clipPath>
</defs>
</svg>
