<svg width="80" height="80" viewBox="0 0 80 80" fill="none" xmlns="http://www.w3.org/2000/svg">
<path d="M60 52.7896C64.853 55.2275 69.0138 59.1398 72.0508 64.0321C72.6522 65.0009 72.9529 65.4853 73.0569 66.1561C73.2682 67.5192 72.336 69.1951 71.0665 69.7345C70.4417 70 69.7389 70 68.3333 70M53.3333 38.4408C58.2724 35.9863 61.6667 30.8895 61.6667 25C61.6667 19.1105 58.2724 14.0137 53.3333 11.5592M46.6667 25C46.6667 33.2843 39.9509 40 31.6667 40C23.3824 40 16.6667 33.2843 16.6667 25C16.6667 16.7157 23.3824 10 31.6667 10C39.9509 10 46.6667 16.7157 46.6667 25ZM8.53077 63.1278C13.8451 55.1485 22.2312 50 31.6667 50C41.1021 50 49.4882 55.1485 54.8026 63.1278C55.9668 64.8758 56.5489 65.7499 56.4819 66.8664C56.4297 67.7357 55.8599 68.8 55.1652 69.3253C54.2731 70 53.0461 70 50.5922 70H12.7412C10.2872 70 9.06027 70 8.16814 69.3253C7.4735 68.8 6.90363 67.7357 6.85145 66.8664C6.78443 65.7499 7.36655 64.8758 8.53077 63.1278Z" stroke="#FFED00" stroke-width="6.67" stroke-linecap="square" stroke-linejoin="round"/>
</svg>
