<svg width="80" height="80" viewBox="0 0 80 80" fill="none" xmlns="http://www.w3.org/2000/svg">
<path d="M70 70H15.3333C13.4665 70 12.5331 70 11.82 69.6367C11.1928 69.3171 10.6829 68.8072 10.3633 68.18C10 67.4669 10 66.5335 10 64.6667V10M70 23.3333L51.8856 41.4477C51.2256 42.1077 50.8956 42.4378 50.515 42.5614C50.1803 42.6702 49.8197 42.6702 49.485 42.5614C49.1044 42.4378 48.7744 42.1077 48.1144 41.4477L41.8856 35.219C41.2256 34.5589 40.8956 34.2289 40.515 34.1053C40.1803 33.9965 39.8197 33.9965 39.485 34.1053C39.1044 34.2289 38.7744 34.5589 38.1144 35.219L23.3333 50M70 23.3333H56.6667M70 23.3333V36.6667" stroke="#FFED00" stroke-width="6.67" stroke-linecap="square" stroke-linejoin="round"/>
</svg>
