<svg width="80" height="80" viewBox="0 0 80 80" fill="none" xmlns="http://www.w3.org/2000/svg">
<path d="M40 49.9998C45.5228 49.9998 50 45.5227 50 39.9998C50 34.477 45.5228 29.9998 40 29.9998C34.4772 29.9998 30 34.477 30 39.9998C30 45.5227 34.4772 49.9998 40 49.9998Z" stroke="#FFED00" stroke-width="6.67" stroke-linecap="square" stroke-linejoin="round"/>
<path d="M62.4242 49.0907C62.0209 50.0047 61.9005 51.0186 62.0788 52.0016C62.257 52.9846 62.7256 53.8917 63.4242 54.6059L63.6061 54.7877C64.1696 55.3506 64.6166 56.019 64.9216 56.7547C65.2266 57.4905 65.3836 58.2791 65.3836 59.0756C65.3836 59.8721 65.2266 60.6607 64.9216 61.3965C64.6166 62.1322 64.1696 62.8006 63.6061 63.3635C63.0432 63.927 62.3748 64.374 61.639 64.679C60.9033 64.984 60.1146 65.141 59.3182 65.141C58.5217 65.141 57.7331 64.984 56.9973 64.679C56.2616 64.374 55.5932 63.927 55.0303 63.3635L54.8485 63.1817C54.1343 62.4831 53.2272 62.0144 52.2442 61.8362C51.2612 61.658 50.2473 61.7783 49.3333 62.1817C48.4371 62.5658 47.6727 63.2036 47.1343 64.0166C46.5959 64.8296 46.3069 65.7823 46.303 66.7574V67.2726C46.303 68.8799 45.6645 70.4215 44.5279 71.5581C43.3913 72.6946 41.8498 73.3332 40.2424 73.3332C38.6351 73.3332 37.0935 72.6946 35.9569 71.5581C34.8203 70.4215 34.1818 68.8799 34.1818 67.2726V66.9998C34.1584 65.9968 33.8337 65.0241 33.25 64.208C32.6664 63.392 31.8507 62.7704 30.9091 62.4241C29.9951 62.0207 28.9812 61.9004 27.9982 62.0786C27.0152 62.2569 26.1081 62.7255 25.3939 63.4241L25.2121 63.6059C24.6493 64.1694 23.9808 64.6164 23.2451 64.9214C22.5093 65.2264 21.7207 65.3834 20.9242 65.3834C20.1278 65.3834 19.3391 65.2264 18.6034 64.9214C17.8676 64.6164 17.1992 64.1694 16.6364 63.6059C16.0729 63.043 15.6258 62.3746 15.3208 61.6389C15.0159 60.9031 14.8589 60.1145 14.8589 59.318C14.8589 58.5216 15.0159 57.7329 15.3208 56.9972C15.6258 56.2614 16.0729 55.593 16.6364 55.0301L16.8182 54.8483C17.5168 54.1341 17.9854 53.2271 18.1636 52.244C18.3419 51.261 18.2216 50.2472 17.8182 49.3332C17.434 48.4369 16.7962 47.6725 15.9832 47.1341C15.1702 46.5957 14.2175 46.3068 13.2424 46.3029H12.7273C11.1199 46.3029 9.57836 45.6643 8.44177 44.5278C7.30519 43.3912 6.66666 41.8496 6.66666 40.2423C6.66666 38.6349 7.30519 37.0934 8.44177 35.9568C9.57836 34.8202 11.1199 34.1817 12.7273 34.1817H13C14.003 34.1582 14.9758 33.8335 15.7918 33.2499C16.6079 32.6662 17.2294 31.8506 17.5758 30.9089C17.9791 29.9949 18.0995 28.9811 17.9212 27.9981C17.743 27.015 17.2744 26.108 16.5758 25.3938L16.3939 25.212C15.8304 24.6491 15.3834 23.9807 15.0784 23.2449C14.7734 22.5092 14.6164 21.7205 14.6164 20.9241C14.6164 20.1276 14.7734 19.339 15.0784 18.6032C15.3834 17.8675 15.8304 17.1991 16.3939 16.6362C16.9568 16.0727 17.6252 15.6257 18.361 15.3207C19.0967 15.0157 19.8854 14.8587 20.6818 14.8587C21.4783 14.8587 22.2669 15.0157 23.0027 15.3207C23.7384 15.6257 24.4068 16.0727 24.9697 16.6362L25.1515 16.818C25.8657 17.5166 26.7728 17.9852 27.7558 18.1635C28.7388 18.3417 29.7527 18.2214 30.6667 17.818H30.9091C31.8054 17.4339 32.5697 16.7961 33.1082 15.9831C33.6466 15.1701 33.9355 14.2174 33.9394 13.2423V12.7271C33.9394 11.1197 34.5779 9.5782 35.7145 8.44161C36.8511 7.30503 38.3926 6.6665 40 6.6665C41.6074 6.6665 43.1489 7.30503 44.2855 8.44161C45.4221 9.5782 46.0606 11.1197 46.0606 12.7271V12.9998C46.0645 13.9749 46.3534 14.9276 46.8918 15.7406C47.4303 16.5536 48.1946 17.1915 49.0909 17.5756C50.0049 17.979 51.0188 18.0993 52.0018 17.9211C52.9848 17.7428 53.8919 17.2742 54.6061 16.5756L54.7879 16.3938C55.3507 15.8303 56.0192 15.3833 56.7549 15.0783C57.4907 14.7733 58.2793 14.6163 59.0758 14.6163C59.8722 14.6163 60.6609 14.7733 61.3966 15.0783C62.1324 15.3833 62.8008 15.8303 63.3636 16.3938C63.9271 16.9566 64.3742 17.6251 64.6792 18.3608C64.9841 19.0966 65.1411 19.8852 65.1411 20.6817C65.1411 21.4781 64.9841 22.2668 64.6792 23.0025C64.3742 23.7383 63.9271 24.4067 63.3636 24.9695L63.1818 25.1514C62.4832 25.8655 62.0146 26.7726 61.8364 27.7556C61.6581 28.7386 61.7784 29.7525 62.1818 30.6665V30.9089C62.5659 31.8052 63.2038 32.5696 64.0168 33.108C64.8298 33.6464 65.7825 33.9353 66.7576 33.9392H67.2727C68.8801 33.9392 70.4216 34.5778 71.5582 35.7143C72.6948 36.8509 73.3333 38.3925 73.3333 39.9998C73.3333 41.6072 72.6948 43.1487 71.5582 44.2853C70.4216 45.4219 68.8801 46.0604 67.2727 46.0604H67C66.0249 46.0643 65.0722 46.3533 64.2592 46.8917C63.4462 47.4301 62.8084 48.1945 62.4242 49.0907Z" stroke="#FFED00" stroke-width="6.67" stroke-linecap="square" stroke-linejoin="round"/>
</svg>
